<svg width="16" height="16" rendering="crispEdges" version="1.1" viewBox="0 0 16 16" xmlns="http://www.w3.org/2000/svg"> <rect x="2" y="1" width="1" height="1" fill="#7b1ac1" opacity="255" shape-rendering="crispEdges"/> <g fill="#ed4434" shape-rendering="crispEdges">  <rect x="4" y="1" width="1" height="1" opacity="255"/>  <rect x="5" y="1" width="1" height="1" opacity="255"/>  <rect x="6" y="1" width="1" height="1" opacity="255"/> </g> <g shape-rendering="crispEdges">  <rect x="10" y="1" width="1" height="1" fill="#ffcc47" opacity="255"/>  <rect x="4" y="2" width="1" height="1" fill="#ed4434" opacity="255"/>  <rect x="8" y="2" width="1" height="1" fill="#1ac127" opacity="255"/>  <rect x="12" y="2" width="1" height="1" fill="#ef8cac" opacity="255"/>  <rect x="13" y="2" width="1" height="1" fill="#ef8cac" opacity="255"/>  <rect x="1" y="3" width="1" height="1" fill="#fdd05b" opacity="255"/>  <rect x="4" y="3" width="1" height="1" fill="#ed4434" opacity="255"/>  <rect x="13" y="3" width="1" height="1" fill="#ef8cac" opacity="255"/>  <rect x="4" y="4" width="1" height="1" fill="#ed4434" opacity="255"/>  <rect x="5" y="4" width="1" height="1" fill="#ed4434" opacity="255"/>  <rect x="7" y="4" width="1" height="1" fill="#f4483b" opacity="255"/> </g> <g fill="#ef8cac" shape-rendering="crispEdges">  <rect x="9" y="4" width="1" height="1" opacity="255"/>  <rect x="10" y="4" width="1" height="1" opacity="255"/>  <rect x="11" y="4" width="1" height="1" opacity="255"/>  <rect x="12" y="4" width="1" height="1" opacity="255"/>  <rect x="13" y="4" width="1" height="1" opacity="255"/> </g> <g shape-rendering="crispEdges">  <rect x="5" y="5" width="1" height="1" fill="#e74238" opacity="255"/>  <rect x="9" y="5" width="1" height="1" fill="#ef8cac" opacity="255"/>  <rect x="14" y="5" width="1" height="1" fill="#fdd05b" opacity="255"/>  <rect x="3" y="6" width="1" height="1" fill="#ffb416" opacity="255"/>  <rect x="4" y="6" width="1" height="1" fill="#ffb416" opacity="255"/>  <rect x="5" y="6" width="1" height="1" fill="#ed4434" opacity="255"/>  <rect x="9" y="6" width="1" height="1" fill="#ef8cac" opacity="255"/>  <rect x="11" y="6" width="1" height="1" fill="#c11aae" opacity="255"/>  <rect x="2" y="7" width="1" height="1" fill="#ffb416" opacity="255"/>  <rect x="3" y="7" width="1" height="1" fill="#ffb416" opacity="255"/>  <rect x="4" y="7" width="1" height="1" fill="#8f6331" opacity="255"/>  <rect x="5" y="7" width="1" height="1" fill="#ec4131" opacity="255"/>  <rect x="6" y="7" width="1" height="1" fill="#ffb416" opacity="255"/> </g> <g fill="#ef8cac" shape-rendering="crispEdges">  <rect x="7" y="7" width="1" height="1" opacity="255"/>  <rect x="8" y="7" width="1" height="1" opacity="255"/>  <rect x="9" y="7" width="1" height="1" opacity="255"/> </g> <g shape-rendering="crispEdges">  <rect x="13" y="7" width="1" height="1" fill="#3898d3" opacity="255"/>  <rect x="2" y="8" width="1" height="1" fill="#ffb416" opacity="255"/>  <rect x="3" y="8" width="1" height="1" fill="#8f6331" opacity="255"/>  <rect x="4" y="8" width="1" height="1" fill="#ec4131" opacity="255"/>  <rect x="5" y="8" width="1" height="1" fill="#ec4131" opacity="255"/>  <rect x="6" y="8" width="1" height="1" fill="#ef8cac" opacity="255"/>  <rect x="7" y="8" width="1" height="1" fill="#ef8cac" opacity="255"/>  <rect x="8" y="8" width="1" height="1" fill="#ffb416" opacity="255"/>  <rect x="10" y="8" width="1" height="1" fill="#f4483b" opacity="255"/>  <rect x="12" y="8" width="1" height="1" fill="#3898d3" opacity="255"/>  <rect x="13" y="8" width="1" height="1" fill="#3898d3" opacity="255"/>  <rect x="2" y="9" width="1" height="1" fill="#ffb416" opacity="255"/>  <rect x="3" y="9" width="1" height="1" fill="#ffb416" opacity="255"/>  <rect x="4" y="9" width="1" height="1" fill="#8f6331" opacity="255"/>  <rect x="5" y="9" width="1" height="1" fill="#ef8cac" opacity="255"/>  <rect x="6" y="9" width="1" height="1" fill="#ef8cac" opacity="255"/>  <rect x="7" y="9" width="1" height="1" fill="#8f6331" opacity="255"/>  <rect x="8" y="9" width="1" height="1" fill="#ffb416" opacity="255"/>  <rect x="12" y="9" width="1" height="1" fill="#3898d3" opacity="255"/>  <rect x="15" y="9" width="1" height="1" fill="#fdd05b" opacity="255"/> </g> <g fill="#ffb416" shape-rendering="crispEdges">  <rect x="1" y="10" width="1" height="1" opacity="255"/>  <rect x="2" y="10" width="1" height="1" opacity="255"/>  <rect x="3" y="10" width="1" height="1" opacity="255"/>  <rect x="4" y="10" width="1" height="1" opacity="255"/> </g> <rect x="5" y="10" width="1" height="1" fill="#8f6331" opacity="255" shape-rendering="crispEdges"/> <g fill="#3898d3" shape-rendering="crispEdges">  <rect x="6" y="10" width="1" height="1" opacity="255"/>  <rect x="7" y="10" width="1" height="1" opacity="255"/>  <rect x="8" y="10" width="1" height="1" opacity="255"/>  <rect x="9" y="10" width="1" height="1" opacity="255"/>  <rect x="10" y="10" width="1" height="1" opacity="255"/>  <rect x="12" y="10" width="1" height="1" opacity="255"/> </g> <g fill="#ffb416" shape-rendering="crispEdges">  <rect x="1" y="11" width="1" height="1" opacity="255"/>  <rect x="2" y="11" width="1" height="1" opacity="255"/>  <rect x="3" y="11" width="1" height="1" opacity="255"/>  <rect x="4" y="11" width="1" height="1" opacity="255"/>  <rect x="5" y="11" width="1" height="1" opacity="255"/>  <rect x="6" y="11" width="1" height="1" opacity="255"/>  <rect x="7" y="11" width="1" height="1" opacity="255"/>  <rect x="8" y="11" width="1" height="1" opacity="255"/> </g> <g fill="#3898d3" shape-rendering="crispEdges">  <rect x="10" y="11" width="1" height="1" opacity="255"/>  <rect x="11" y="11" width="1" height="1" opacity="255"/>  <rect x="12" y="11" width="1" height="1" opacity="255"/> </g> <rect x="14" y="11" width="1" height="1" fill="#1ac127" opacity="255" shape-rendering="crispEdges"/> <g fill="#ffb416" shape-rendering="crispEdges">  <rect x="1" y="12" width="1" height="1" opacity="255"/>  <rect x="2" y="12" width="1" height="1" opacity="255"/>  <rect x="3" y="12" width="1" height="1" opacity="255"/>  <rect x="4" y="12" width="1" height="1" opacity="255"/>  <rect x="5" y="12" width="1" height="1" opacity="255"/>  <rect x="6" y="12" width="1" height="1" opacity="255"/>  <rect y="13" width="1" height="1" opacity="255"/>  <rect x="1" y="13" width="1" height="1" opacity="255"/>  <rect x="2" y="13" width="1" height="1" opacity="255"/>  <rect x="3" y="13" width="1" height="1" opacity="255"/>  <rect x="4" y="13" width="1" height="1" opacity="255"/>  <rect y="14" width="1" height="1" opacity="255"/>  <rect x="1" y="14" width="1" height="1" opacity="255"/> </g></svg>